<svg width="512" height="512" viewBox="0 0 512 512" fill="none" xmlns="http://www.w3.org/2000/svg">
  <rect x="32" y="32" width="448" height="448" rx="116" fill="url(#bg)" />
  <rect x="72" y="86" width="368" height="340" rx="72" fill="url(#panel)" />
  <rect x="98" y="116" width="316" height="46" rx="23" fill="white" fill-opacity="0.92" />
  <circle cx="134" cy="139" r="10" fill="#2563EB" fill-opacity="0.22" />
  <circle cx="166" cy="139" r="10" fill="#2563EB" fill-opacity="0.22" />
  <circle cx="198" cy="139" r="10" fill="#2563EB" fill-opacity="0.22" />

  <rect x="102" y="192" width="144" height="88" rx="28" fill="white" fill-opacity="0.97" />
  <circle cx="138" cy="225" r="17" fill="#DCE8FF" />
  <rect x="164" y="211" width="58" height="10" rx="5" fill="#0F172A" fill-opacity="0.88" />
  <rect x="164" y="228" width="44" height="8" rx="4" fill="#64748B" fill-opacity="0.78" />
  <rect x="126" y="247" width="96" height="16" rx="8" fill="#EAF8F1" />
  <circle cx="138" cy="255" r="5" fill="#76B01F" />

  <rect x="266" y="192" width="144" height="88" rx="28" fill="white" fill-opacity="0.97" />
  <circle cx="302" cy="225" r="17" fill="#DCE8FF" />
  <rect x="328" y="211" width="58" height="10" rx="5" fill="#0F172A" fill-opacity="0.88" />
  <rect x="328" y="228" width="44" height="8" rx="4" fill="#64748B" fill-opacity="0.78" />
  <rect x="290" y="247" width="96" height="16" rx="8" fill="#FFF6DA" />
  <path d="M338 246V255L346 261" stroke="#F3C600" stroke-width="5.5" stroke-linecap="round" stroke-linejoin="round" />
  <circle cx="338" cy="255" r="8" fill="#FFD92E" />

  <rect x="102" y="298" width="308" height="90" rx="30" fill="white" fill-opacity="0.95" />
  <circle cx="138" cy="332" r="18" fill="#DCE8FF" />
  <rect x="168" y="317" width="130" height="11" rx="5.5" fill="#0F172A" fill-opacity="0.88" />
  <rect x="168" y="336" width="100" height="8" rx="4" fill="#64748B" fill-opacity="0.78" />
  <rect x="126" y="355" width="158" height="17" rx="8.5" fill="#EAF8F1" />
  <circle cx="139" cy="363.5" r="5.5" fill="#76B01F" />

  <circle cx="386" cy="116" r="40" fill="white" />
  <circle cx="386" cy="116" r="28" fill="#76B01F" />
  <path d="M372 116L382 126L402 106" stroke="white" stroke-width="10" stroke-linecap="round" stroke-linejoin="round" />

  <defs>
    <linearGradient id="bg" x1="70" y1="54" x2="442" y2="458" gradientUnits="userSpaceOnUse">
      <stop stop-color="#0F172A" />
      <stop offset="1" stop-color="#2563EB" />
    </linearGradient>
    <linearGradient id="panel" x1="96" y1="98" x2="420" y2="420" gradientUnits="userSpaceOnUse">
      <stop stop-color="#EFF6FF" />
      <stop offset="1" stop-color="#DBEAFE" />
    </linearGradient>
  </defs>
</svg>
